<svg width="114" height="115" viewBox="0 0 114 115" fill="none" xmlns="http://www.w3.org/2000/svg">
<g id="Component 1" filter="url(#filter0_i_1_27)">
<g id="Ellipse 1" style="mix-blend-mode:color-dodge">
<g filter="url(#filter1_i_1_27)">
<path d="M113.5 59C113.5 89.6518 88.2041 114.5 57 114.5C25.7959 114.5 0.5 89.6518 0.5 59C0.5 28.3482 2.7959 0 34 0C65.2041 0 113.5 28.3482 113.5 59Z" fill="#39EA80" fill-opacity="0.5"/>
<path d="M113.5 59C113.5 89.6518 88.2041 114.5 57 114.5C25.7959 114.5 0.5 89.6518 0.5 59C0.5 28.3482 2.7959 0 34 0C65.2041 0 113.5 28.3482 113.5 59Z" fill="#15F0BC" fill-opacity="0.5"/>
</g>
<path d="M57 114.75C88.3379 114.75 113.75 89.7941 113.75 59C113.75 43.5464 101.587 28.7311 85.5926 17.7992C69.5883 6.8603 49.665 -0.25 34 -0.25C26.1604 -0.25 20.1141 1.53097 15.4606 4.70174C10.8074 7.87235 7.56808 12.4181 5.31713 17.9108C0.821118 28.8818 0.25 43.6811 0.25 59C0.25 89.7941 25.6621 114.75 57 114.75Z" stroke="#39ED0C" stroke-width="0.5"/>
</g>
<g id="SK">
<g id="SK_2" style="mix-blend-mode:lighten" filter="url(#filter2_b_1_27)">
<path d="M28.3059 70.088L29.6019 61.448H35.7459L37.2339 67.592H42.5619V63.992L33.1059 56.984C31.6979 55.96 30.6579 54.744 29.9859 53.336C29.3139 51.928 28.9779 50.392 28.9779 48.728C28.9779 47.032 29.1219 45.736 29.4099 44.84C29.7299 43.912 30.1939 43.16 30.8019 42.584C31.4099 41.976 32.0659 41.48 32.7699 41.096C33.4739 40.712 34.3379 40.424 35.3619 40.232C37.1219 39.912 39.5059 39.752 42.5139 39.752C45.5219 39.752 48.8979 40.296 52.6419 41.384L51.3459 50.024H45.7779L44.4819 43.88H39.6819V47.48L49.1379 54.488C50.5459 55.512 51.5859 56.728 52.2579 58.136C52.9299 59.544 53.2659 61.144 53.2659 62.936C53.2659 64.728 53.0259 66.152 52.5459 67.208C52.0659 68.232 51.4579 69.032 50.7219 69.608C50.0179 70.184 49.0739 70.632 47.8899 70.952C46.0019 71.464 43.2819 71.72 39.7299 71.72C36.1779 71.72 32.3699 71.176 28.3059 70.088ZM76.2909 55.544V56.648H78.4509C79.5389 56.648 80.2589 56.824 80.6109 57.176C80.9949 57.528 81.2989 58.264 81.5229 59.384L83.4429 69.176H86.1789V71H74.3229L71.4429 57.368H68.0829V71H55.6509V69.176H57.7629V42.344H55.6509V40.52H68.0829V54.728H71.5869L74.3229 40.52H85.6989V42.344H83.2029L80.1309 52.52C79.6189 54.312 78.3389 55.32 76.2909 55.544Z" fill="#6F119B" fill-opacity="0.99"/>
<path d="M28.3059 70.088L28.207 70.0732L28.1938 70.1615L28.2801 70.1846L28.3059 70.088ZM29.6019 61.448V61.348H29.5158L29.503 61.4332L29.6019 61.448ZM35.7459 61.448L35.8431 61.4245L35.8246 61.348H35.7459V61.448ZM37.2339 67.592L37.1367 67.6155L37.1553 67.692H37.2339V67.592ZM42.5619 67.592V67.692H42.6619V67.592H42.5619ZM42.5619 63.992H42.6619V63.9416L42.6215 63.9117L42.5619 63.992ZM33.1059 56.984L33.1655 56.9037L33.1648 56.9031L33.1059 56.984ZM29.9859 53.336L30.0762 53.2929L30.0762 53.2929L29.9859 53.336ZM29.4099 44.84L29.3154 44.8074L29.3147 44.8094L29.4099 44.84ZM30.8019 42.584L30.8707 42.6566L30.8726 42.6547L30.8019 42.584ZM32.7699 41.096L32.7221 41.0082L32.7221 41.0082L32.7699 41.096ZM35.3619 40.232L35.344 40.1336L35.3435 40.1337L35.3619 40.232ZM52.6419 41.384L52.7408 41.3988L52.7538 41.3124L52.6698 41.288L52.6419 41.384ZM51.3459 50.024V50.124H51.4321L51.4448 50.0388L51.3459 50.024ZM45.7779 50.024L45.6801 50.0446L45.6968 50.124H45.7779V50.024ZM44.4819 43.88L44.5798 43.8594L44.563 43.78H44.4819V43.88ZM39.6819 43.88V43.78H39.5819V43.88H39.6819ZM39.6819 47.48H39.5819V47.5304L39.6224 47.5603L39.6819 47.48ZM49.1379 54.488L49.0784 54.5683L49.0791 54.5689L49.1379 54.488ZM52.2579 58.136L52.1677 58.1791L52.1677 58.1791L52.2579 58.136ZM52.5459 67.208L52.6365 67.2504L52.637 67.2494L52.5459 67.208ZM50.7219 69.608L50.6603 69.5292L50.6586 69.5306L50.7219 69.608ZM47.8899 70.952L47.8638 70.8555L47.8638 70.8555L47.8899 70.952ZM28.4048 70.1028L29.7008 61.4628L29.503 61.4332L28.207 70.0732L28.4048 70.1028ZM29.6019 61.548H35.7459V61.348H29.6019V61.548ZM35.6487 61.4715L37.1367 67.6155L37.3311 67.5685L35.8431 61.4245L35.6487 61.4715ZM37.2339 67.692H42.5619V67.492H37.2339V67.692ZM42.6619 67.592V63.992H42.4619V67.592H42.6619ZM42.6215 63.9117L33.1655 56.9037L33.0464 57.0643L42.5024 64.0723L42.6215 63.9117ZM33.1648 56.9031C31.7686 55.8878 30.7402 54.6842 30.0762 53.2929L29.8957 53.3791C30.5757 54.8038 31.6272 56.0322 33.0471 57.0649L33.1648 56.9031ZM30.0762 53.2929C29.411 51.8993 29.0779 50.3781 29.0779 48.728H28.8779C28.8779 50.4059 29.2168 51.9567 29.8957 53.3791L30.0762 53.2929ZM29.0779 48.728C29.0779 47.0355 29.2219 45.7518 29.5051 44.8706L29.3147 44.8094C29.022 45.7202 28.8779 47.0285 28.8779 48.728H29.0779ZM29.5045 44.8726C29.8201 43.9572 30.2762 43.2198 30.8707 42.6566L30.7332 42.5114C30.1116 43.1002 29.6397 43.8668 29.3154 44.8074L29.5045 44.8726ZM30.8726 42.6547C31.4744 42.053 32.1228 41.5629 32.8178 41.1838L32.7221 41.0082C32.0091 41.3971 31.3455 41.899 30.7312 42.5133L30.8726 42.6547ZM32.8178 41.1838C33.5103 40.8061 34.3638 40.5209 35.3804 40.3303L35.3435 40.1337C34.3121 40.3271 33.4375 40.6179 32.7221 41.0082L32.8178 41.1838ZM35.3798 40.3304C37.1313 40.0119 39.5085 39.852 42.5139 39.852V39.652C39.5034 39.652 37.1126 39.8121 35.344 40.1336L35.3798 40.3304ZM42.5139 39.852C45.5102 39.852 48.8766 40.3939 52.614 41.48L52.6698 41.288C48.9193 40.1981 45.5337 39.652 42.5139 39.652V39.852ZM52.543 41.3692L51.247 50.0092L51.4448 50.0388L52.7408 41.3988L52.543 41.3692ZM51.3459 49.924H45.7779V50.124H51.3459V49.924ZM45.8758 50.0034L44.5798 43.8594L44.3841 43.9006L45.6801 50.0446L45.8758 50.0034ZM44.4819 43.78H39.6819V43.98H44.4819V43.78ZM39.5819 43.88V47.48H39.7819V43.88H39.5819ZM39.6224 47.5603L49.0784 54.5683L49.1975 54.4077L39.7415 47.3997L39.6224 47.5603ZM49.0791 54.5689C50.4753 55.5842 51.5037 56.7878 52.1677 58.1791L52.3482 58.0929C51.6682 56.6682 50.6166 55.4398 49.1968 54.4071L49.0791 54.5689ZM52.1677 58.1791C52.8324 59.5718 53.1659 61.1567 53.1659 62.936H53.3659C53.3659 61.1313 53.0275 59.5162 52.3482 58.0929L52.1677 58.1791ZM53.1659 62.936C53.1659 64.7207 52.9267 66.1288 52.4549 67.1666L52.637 67.2494C53.1252 66.1752 53.3659 64.7353 53.3659 62.936H53.1659ZM52.4554 67.1656C51.9807 68.1783 51.3816 68.9647 50.6603 69.5292L50.7836 69.6868C51.5343 69.0993 52.1512 68.2857 52.6365 67.2504L52.4554 67.1656ZM50.6586 69.5306C49.9686 70.0951 49.0387 70.5379 47.8638 70.8555L47.916 71.0485C49.1092 70.7261 50.0672 70.2729 50.7853 69.6854L50.6586 69.5306ZM47.8638 70.8555C45.9886 71.364 43.279 71.62 39.7299 71.62V71.82C43.2848 71.82 46.0153 71.564 47.9161 71.0485L47.8638 70.8555ZM39.7299 71.62C36.1881 71.62 32.3889 71.0775 28.3318 69.9914L28.2801 70.1846C32.351 71.2745 36.1678 71.82 39.7299 71.82V71.62ZM76.2909 55.544L76.2801 55.4446L76.1909 55.4543V55.544H76.2909ZM76.2909 56.648H76.1909V56.748H76.2909V56.648ZM80.6109 57.176L80.5402 57.2468L80.5434 57.2497L80.6109 57.176ZM81.5229 59.384L81.6211 59.3648L81.621 59.3644L81.5229 59.384ZM83.4429 69.176L83.3448 69.1952L83.3606 69.276H83.4429V69.176ZM86.1789 69.176H86.2789V69.076H86.1789V69.176ZM86.1789 71V71.1H86.2789V71H86.1789ZM74.3229 71L74.2251 71.0207L74.2419 71.1H74.3229V71ZM71.4429 57.368L71.5408 57.3473L71.524 57.268H71.4429V57.368ZM68.0829 57.368V57.268H67.9829V57.368H68.0829ZM68.0829 71V71.1H68.1829V71H68.0829ZM55.6509 71H55.5509V71.1H55.6509V71ZM55.6509 69.176V69.076H55.5509V69.176H55.6509ZM57.7629 69.176V69.276H57.8629V69.176H57.7629ZM57.7629 42.344H57.8629V42.244H57.7629V42.344ZM55.6509 42.344H55.5509V42.444H55.6509V42.344ZM55.6509 40.52V40.42H55.5509V40.52H55.6509ZM68.0829 40.52H68.1829V40.42H68.0829V40.52ZM68.0829 54.728H67.9829V54.828H68.0829V54.728ZM71.5869 54.728V54.828H71.6695L71.6851 54.7469L71.5869 54.728ZM74.3229 40.52V40.42H74.2404L74.2247 40.5011L74.3229 40.52ZM85.6989 40.52H85.7989V40.42H85.6989V40.52ZM85.6989 42.344V42.444H85.7989V42.344H85.6989ZM83.2029 42.344V42.244H83.1287L83.1072 42.3151L83.2029 42.344ZM80.1309 52.52L80.0352 52.4911L80.0348 52.4925L80.1309 52.52ZM76.1909 55.544V56.648H76.3909V55.544H76.1909ZM76.2909 56.748H78.4509V56.548H76.2909V56.748ZM78.4509 56.748C78.9903 56.748 79.4337 56.7917 79.7832 56.8771C80.1335 56.9628 80.382 57.0885 80.5402 57.2467L80.6816 57.1053C80.4879 56.9115 80.2004 56.7732 79.8307 56.6829C79.4602 56.5923 78.9996 56.548 78.4509 56.548V56.748ZM80.5434 57.2497C80.7204 57.412 80.8854 57.6692 81.0345 58.0302C81.1832 58.3902 81.3137 58.8475 81.4249 59.4036L81.621 59.3644C81.5082 58.8005 81.3746 58.3298 81.2194 57.9538C81.0645 57.5788 80.8855 57.292 80.6785 57.1023L80.5434 57.2497ZM81.4248 59.4032L83.3448 69.1952L83.5411 69.1568L81.6211 59.3648L81.4248 59.4032ZM83.4429 69.276H86.1789V69.076H83.4429V69.276ZM86.0789 69.176V71H86.2789V69.176H86.0789ZM86.1789 70.9H74.3229V71.1H86.1789V70.9ZM74.4208 70.9793L71.5408 57.3473L71.3451 57.3887L74.2251 71.0207L74.4208 70.9793ZM71.4429 57.268H68.0829V57.468H71.4429V57.268ZM67.9829 57.368V71H68.1829V57.368H67.9829ZM68.0829 70.9H55.6509V71.1H68.0829V70.9ZM55.7509 71V69.176H55.5509V71H55.7509ZM55.6509 69.276H57.7629V69.076H55.6509V69.276ZM57.8629 69.176V42.344H57.6629V69.176H57.8629ZM57.7629 42.244H55.6509V42.444H57.7629V42.244ZM55.7509 42.344V40.52H55.5509V42.344H55.7509ZM55.6509 40.62H68.0829V40.42H55.6509V40.62ZM67.9829 40.52V54.728H68.1829V40.52H67.9829ZM68.0829 54.828H71.5869V54.628H68.0829V54.828ZM71.6851 54.7469L74.4211 40.5389L74.2247 40.5011L71.4887 54.7091L71.6851 54.7469ZM74.3229 40.62H85.6989V40.42H74.3229V40.62ZM85.5989 40.52V42.344H85.7989V40.52H85.5989ZM85.6989 42.244H83.2029V42.444H85.6989V42.244ZM83.1072 42.3151L80.0352 52.4911L80.2267 52.5489L83.2987 42.3729L83.1072 42.3151ZM80.0348 52.4925C79.7837 53.3713 79.3462 54.0523 78.7251 54.5414C78.1032 55.0311 77.2903 55.3341 76.2801 55.4446L76.3018 55.6434C77.3395 55.5299 78.1907 55.2169 78.8488 54.6986C79.5076 54.1797 79.9662 53.4607 80.2271 52.5475L80.0348 52.4925Z" fill="#0CF29F"/>
</g>
</g>
</g>
<defs>
<filter id="filter0_i_1_27" x="0" y="-0.5" width="114" height="119.5" filterUnits="userSpaceOnUse" color-interpolation-filters="sRGB">
<feFlood flood-opacity="0" result="BackgroundImageFix"/>
<feBlend mode="normal" in="SourceGraphic" in2="BackgroundImageFix" result="shape"/>
<feColorMatrix in="SourceAlpha" type="matrix" values="0 0 0 0 0 0 0 0 0 0 0 0 0 0 0 0 0 0 127 0" result="hardAlpha"/>
<feOffset dy="4"/>
<feGaussianBlur stdDeviation="2"/>
<feComposite in2="hardAlpha" operator="arithmetic" k2="-1" k3="1"/>
<feColorMatrix type="matrix" values="0 0 0 0 0 0 0 0 0 0 0 0 0 0 0 0 0 0 0.25 0"/>
<feBlend mode="normal" in2="shape" result="effect1_innerShadow_1_27"/>
</filter>
<filter id="filter1_i_1_27" x="0" y="-0.5" width="114" height="119.5" filterUnits="userSpaceOnUse" color-interpolation-filters="sRGB">
<feFlood flood-opacity="0" result="BackgroundImageFix"/>
<feBlend mode="normal" in="SourceGraphic" in2="BackgroundImageFix" result="shape"/>
<feColorMatrix in="SourceAlpha" type="matrix" values="0 0 0 0 0 0 0 0 0 0 0 0 0 0 0 0 0 0 127 0" result="hardAlpha"/>
<feOffset dy="4"/>
<feGaussianBlur stdDeviation="2"/>
<feComposite in2="hardAlpha" operator="arithmetic" k2="-1" k3="1"/>
<feColorMatrix type="matrix" values="0 0 0 0 0 0 0 0 0 0 0 0 0 0 0 0 0 0 0.25 0"/>
<feBlend mode="normal" in2="shape" result="effect1_innerShadow_1_27"/>
</filter>
<filter id="filter2_b_1_27" x="24.3059" y="35.752" width="65.873" height="39.968" filterUnits="userSpaceOnUse" color-interpolation-filters="sRGB">
<feFlood flood-opacity="0" result="BackgroundImageFix"/>
<feGaussianBlur in="BackgroundImageFix" stdDeviation="2"/>
<feComposite in2="SourceAlpha" operator="in" result="effect1_backgroundBlur_1_27"/>
<feBlend mode="normal" in="SourceGraphic" in2="effect1_backgroundBlur_1_27" result="shape"/>
</filter>
</defs>
</svg>
